# xmcd
#
# Track frame offsets:
#	150
#	17122
#	34127
#	50780
#	69167
#	82552
#	98157
#	114020
#	131045
#	148295
#	163207
#	182060
#	197502
#
# Disc length: 2845 seconds
#
# Revision: 1
# Processed by: cddbd v1.5.2PL0 Copyright (c) Steve Scherf et al.
# Submitted via: EasyCDDAExtractor 11.0.2.1
#
DISCID=ab0b1b0d
DTITLE=Jesse and Joy - fEsta es mi vida
DYEAR=2008
DGENRE=pop
TTITLE0=Dulce Melodia
TTITLE1=Nadie Podria
TTITLE2=Espeacio Sidera
TTITLE3=Llegaste tu
TTITLE4=Cielo Azul
TTITLE5=Ya No Quiero
TTITLE6=Mi Sol
TTITLE7=Quiero Conocerte
TTITLE8=Voluere
TTITLE9=Esta es mi vida
TTITLE10=Somos lo que fue
TTITLE11=Ser o Estar
TTITLE12=Esto es lo Que soy
EXTD=
EXTT0=
EXTT1=
EXTT2=
EXTT3=
EXTT4=
EXTT5=
EXTT6=
EXTT7=
EXTT8=
EXTT9=
EXTT10=
EXTT11=
EXTT12=
PLAYORDER=
